<?xml version="1.0" encoding="UTF-8"?>
<svg xmlns="http://www.w3.org/2000/svg" viewBox="0 0 670.69 374.7">
  <g id="O">
    <path d="M0,156.91v104.9c0,23.73,17.55,42.97,39.2,42.97h74.96c21.65,0,39.2-19.24,39.2-42.97v-104.9c0-23.73-17.55-42.97-39.2-42.97H39.2c-21.65,0-39.2,19.24-39.2,42.97ZM78.91,254.77h-4.45c-21.65,0-39.2-19.24-39.2-42.97v-4.88c0-23.73,17.55-42.97,39.2-42.97h4.45c21.65,0,39.2,19.24,39.2,42.97v4.88c0,23.73-17.55,42.97-39.2,42.97Z" style="fill: #fff;"/>
  </g>
  <g id="W">
    <g id="Layer_1" data-name="Layer 1">
      <path d="M185.73,135.68l13.89,149.55c.98,10.58,9.79,18.7,20.42,18.83l14.06.16c8.56.1,16.3-5.07,19.49-13.01l11.91-29.63c3.19-7.94,10.93-13.11,19.49-13.01l3.69.04c8.42.1,15.95,5.28,19.05,13.1l12.13,30.62c3.1,7.83,9.92,12.15,18.34,12.24l12.12.38c10.44.12,20.05-6.91,21.49-17.26l15.28-149.91c1.73-12.38-7.81-23.47-20.31-23.61h0c-10.58-.12-19.56,7.74-20.84,18.25l-2.26,65.1c-1.27,10.51-10.25,18.37-20.84,18.25l-66.68-.78c-10.65-.12-19.48-8.29-20.42-18.9l-5.72-64.14c-.95-10.61-9.09-18.07-19.75-18.19h-4.95c-12.31-.14-20.75,9.66-19.61,21.92Z" style="fill: #fff;"/>
    </g>
  </g>
  <g id="E">
    <path d="M418.85,130.74l-8.34,156.52c-.44,9.54,7.11,17.54,16.66,17.65l84.33-.31c9.39.11,18.01-6.18,18.01-15.57h0c0-9.31-7.54-16.86-16.86-16.87l-43.9-.04c-9.63,0-17.3-8.07-16.84-17.69l.66-13.57c.44-9.07,7.97-16.16,17.05-16.05l27.67.32c9.13.11,16.69-7.07,17.06-16.19l.02-.49c.38-9.36-6.95-17.24-16.31-17.55l-28.25-.91c-9.23-.3-16.5-7.96-16.32-17.19l.15-7.72c.18-9.27,7.8-16.65,17.07-16.54l41.74.49c9.4.11,17.07-7.48,17.07-16.87v-2.89c0-9.24-6.37-14.73-15.61-14.84l-79.31-.56c-9.09-.11-15.33,7.79-15.75,16.87Z" style="fill: #fff;"/>
  </g>
  <g id="N">
    <path d="M565.8,296.06l-1.8-176.34c.03-3.48,2.88-6.27,6.35-6.23l16.66.19c2.59.03,4.9,1.65,5.81,4.08l32.25,71.78c2.47,6.59,12.26,4.75,12.16-2.29l-3.02-67.19c-.05-3.5,2.78-6.37,6.28-6.37h23.91c3.52,0,6.36,2.9,6.28,6.42l-1.99,175.77c-.08,3.41-2.44,7.45-5.85,7.45h-22.67c-2.45,0-4.38-2.7-5.41-4.93l-22.06-47.84c-2.8-6.08-11.91-4.14-11.99,2.56l-.48,43.33c-.04,3.47-2.69,7.3-6.16,7.26h-22.29c-3.46-.04-6.02-4.18-5.99-7.64Z" style="fill: #fff;"/>
  </g>
  <g id="LEAF">
    <path d="M301.39,105.81l-12.95,22.72-17.16-23.07c-9.32-12.53-11.84-28.85-6.74-43.61L286.39,0l21.5,58.13c2.83,10.04,4.06,15.38,2.23,25.64-1.97,11.05-5.93,17.1-8.74,22.03Z" style="fill: #fff;"/>
  </g>
  <g id="ALLEN">
    <g>
      <path d="M33.92,368.28h-12.91s-1.8,5.93-1.8,5.93H7.59s13.87-35.95,13.87-35.95h12.41s13.8,35.98,13.8,35.98h-11.91s-1.84-5.95-1.84-5.95ZM31.56,360.51l-4.05-12.93-4.03,12.92h8.09Z" style="fill: #fff;"/>
      <path d="M171.09,338.36h11.38s-.02,27.11-.02,27.11h17.75s0,8.87,0,8.87l-29.13-.02.03-35.96Z" style="fill: #fff;"/>
      <path d="M329.28,338.48h11.38s-.02,27.11-.02,27.11h17.75s0,8.87,0,8.87l-29.13-.02.03-35.96Z" style="fill: #fff;"/>
      <path d="M474.08,338.59l30.48.02v7.68s-19.09-.01-19.09-.01v5.71s17.7.01,17.7.01v7.33s-17.71-.01-17.71-.01v7.09s19.63.01,19.63.01v8.14s-31.04-.02-31.04-.02l.03-35.96Z" style="fill: #fff;"/>
      <path d="M641.41,338.72h8.34s10.87,19.91,10.87,19.91v-19.89s8.43,0,8.43,0l-.02,35.96h-8.41s-10.81-19.76-10.81-19.76v19.74s-8.41,0-8.41,0l.02-35.96Z" style="fill: #fff;"/>
    </g>
  </g>
</svg>